999
dxfrw 0.5.11
0
SECTION
2
HEADER
9
$ACADVER
1
AC1021
9
$HANDSEED
5
20000
9
$DWGCODEPAGE
3
ANSI_1252
9
$INSBASE
10
0
20
0
30
0
9
$EXTMIN
10
-50
20
-100
30
0
9
$EXTMAX
10
433.6
20
266.1
30
0
9
$LIMMIN
10
0
20
0
9
$LIMMAX
10
420
20
297
9
$ORTHOMODE
70
0
9
$LTSCALE
40
1
9
$TEXTSTYLE
7
STANDARD
9
$CLAYER
8
Rohre
9
$DIMASZ
40
2
9
$DIMLFAC
40
1
9
$DIMSCALE
40
1
9
$DIMEXO
40
2
9
$DIMEXE
40
2
9
$DIMTXT
40
5
9
$DIMTSZ
40
0
9
$DIMAUNIT
70
0
9
$DIMADEC
70
2
9
$DIMLUNIT
70
2
9
$DIMSTYLE
2
STANDARD
9
$DIMGAP
40
2
9
$DIMTIH
70
0
9
$LUNITS
70
2
9
$LUPREC
70
4
9
$AUNITS
70
0
9
$AUPREC
70
2
9
$SPLINESEGS
70
8
9
$GRIDMODE
70
1
9
$SNAPSTYLE
70
0
9
$GRIDUNIT
10
0
20
0
9
$PINSBASE
10
-256.271669621
20
126.691329907
30
0
9
$PLIMMIN
10
0
20
0
9
$PLIMMAX
10
210
20
297
9
$INSUNITS
70
4
9
$PSVPSCALE
40
1
0
ENDSEC
0
SECTION
2
CLASSES
0
ENDSEC
0
SECTION
2
TABLES
0
TABLE
2
VPORT
5
8
330
0
100
AcDbSymbolTable
70
1
0
VPORT
5
31
330
2
100
AcDbSymbolTableRecord
100
AcDbViewportTableRecord
2
*ACTIVE
70
0
10
0
20
0
11
1
21
1
12
379.175
22
145.070238095
13
0
23
0
14
10
24
10
15
10
25
10
16
0
26
0
36
1
17
0
27
0
37
0
40
470.077380952
41
1.92317880795
42
50
43
0
44
0
50
0
51
0
71
0
72
100
73
1
74
3
75
0
76
1
77
0
78
0
281
0
65
1
110
0
120
0
130
0
111
1
121
0
131
0
112
0
122
1
132
0
79
0
146
0
348
10020
60
7
61
5
292
1
282
1
141
0
142
0
63
250
421
3358443
0
ENDTAB
0
TABLE
2
LTYPE
5
5
330
0
100
AcDbSymbolTable
70
4
0
LTYPE
5
14
330
5
100
AcDbSymbolTableRecord
100
AcDbLinetypeTableRecord
2
ByBlock
70
0
3

72
65
73
0
40
0
0
LTYPE
5
15
330
5
100
AcDbSymbolTableRecord
100
AcDbLinetypeTableRecord
2
ByLayer
70
0
3

72
65
73
0
40
0
0
LTYPE
5
16
330
5
100
AcDbSymbolTableRecord
100
AcDbLinetypeTableRecord
2
Continuous
70
0
3
Solid line
72
65
73
0
40
0
0
LTYPE
5
32
330
5
100
AcDbSymbolTableRecord
100
AcDbLinetypeTableRecord
2
DOT
70
0
3
Dot . . . . . . . . . . . . . . . . . . . . . .
72
65
73
2
40
6.35
49
0
74
0
49
-6.35
74
0
0
LTYPE
5
33
330
5
100
AcDbSymbolTableRecord
100
AcDbLinetypeTableRecord
2
DOT2
70
0
3
Dot (.5x) .....................................
72
65
73
2
40
3.175
49
0
74
0
49
-3.175
74
0
0
LTYPE
5
34
330
5
100
AcDbSymbolTableRecord
100
AcDbLinetypeTableRecord
2
DOTX2
70
0
3
Dot (2x) .  .  .  .  .  .  .  .  .  .  .  .  .
72
65
73
2
40
12.7
49
0
74
0
49
-12.7
74
0
0
LTYPE
5
35
330
5
100
AcDbSymbolTableRecord
100
AcDbLinetypeTableRecord
2
DASHED
70
0
3
Dot . . . . . . . . . . . . . . . . . . . . . .
72
65
73
2
40
19.05
49
12.7
74
0
49
-6.35
74
0
0
LTYPE
5
36
330
5
100
AcDbSymbolTableRecord
100
AcDbLinetypeTableRecord
2
DASHED2
70
0
3
Dashed (.5x) _ _ _ _ _ _ _ _ _ _ _ _ _ _ _ _ _
72
65
73
2
40
9.525
49
6.35
74
0
49
-3.175
74
0
0
LTYPE
5
37
330
5
100
AcDbSymbolTableRecord
100
AcDbLinetypeTableRecord
2
DASHEDX2
70
0
3
Dashed (2x) ____  ____  ____  ____  ____  ___
72
65
73
2
40
38.1
49
25.4
74
0
49
-12.7
74
0
0
LTYPE
5
38
330
5
100
AcDbSymbolTableRecord
100
AcDbLinetypeTableRecord
2
DASHDOT
70
0
3
Dash dot __ . __ . __ . __ . __ . __ . __ . __
72
65
73
4
40
25.4
49
12.7
74
0
49
-6.35
74
0
49
0
74
0
49
-6.35
74
0
0
LTYPE
5
39
330
5
100
AcDbSymbolTableRecord
100
AcDbLinetypeTableRecord
2
DASHDOT2
70
0
3
Dash dot (.5x) _._._._._._._._._._._._._._._.
72
65
73
4
40
12.7
49
6.35
74
0
49
-3.175
74
0
49
0
74
0
49
-3.175
74
0
0
LTYPE
5
3A
330
5
100
AcDbSymbolTableRecord
100
AcDbLinetypeTableRecord
2
DASHDOTX2
70
0
3
Dash dot (2x) ____  .  ____  .  ____  .  ___
72
65
73
4
40
50.8
49
25.4
74
0
49
-12.7
74
0
49
0
74
0
49
-12.7
74
0
0
LTYPE
5
3B
330
5
100
AcDbSymbolTableRecord
100
AcDbLinetypeTableRecord
2
DIVIDE
70
0
3
Divide ____ . . ____ . . ____ . . ____ . . ____
72
65
73
6
40
31.75
49
12.7
74
0
49
-6.35
74
0
49
0
74
0
49
-6.35
74
0
49
0
74
0
49
-6.35
74
0
0
LTYPE
5
3C
330
5
100
AcDbSymbolTableRecord
100
AcDbLinetypeTableRecord
2
DIVIDE2
70
0
3
Divide (.5x) __..__..__..__..__..__..__..__.._
72
65
73
6
40
15.875
49
6.35
74
0
49
-3.175
74
0
49
0
74
0
49
-3.175
74
0
49
0
74
0
49
-3.175
74
0
0
LTYPE
5
3D
330
5
100
AcDbSymbolTableRecord
100
AcDbLinetypeTableRecord
2
DIVIDEX2
70
0
3
Divide (2x) ________  .  .  ________  .  .  _
72
65
73
6
40
63.5
49
25.4
74
0
49
-12.7
74
0
49
0
74
0
49
-12.7
74
0
49
0
74
0
49
-12.7
74
0
0
LTYPE
5
3E
330
5
100
AcDbSymbolTableRecord
100
AcDbLinetypeTableRecord
2
BORDER
70
0
3
Border __ __ . __ __ . __ __ . __ __ . __ __ .
72
65
73
6
40
44.45
49
12.7
74
0
49
-6.35
74
0
49
12.7
74
0
49
-6.35
74
0
49
0
74
0
49
-6.35
74
0
0
LTYPE
5
3F
330
5
100
AcDbSymbolTableRecord
100
AcDbLinetypeTableRecord
2
BORDER2
70
0
3
Border (.5x) __.__.__.__.__.__.__.__.__.__.__.
72
65
73
6
40
22.225
49
6.35
74
0
49
-3.175
74
0
49
6.35
74
0
49
-3.175
74
0
49
0
74
0
49
-3.175
74
0
0
LTYPE
5
40
330
5
100
AcDbSymbolTableRecord
100
AcDbLinetypeTableRecord
2
BORDERX2
70
0
3
Border (2x) ____  ____  .  ____  ____  .  ___
72
65
73
6
40
88.9
49
25.4
74
0
49
-12.7
74
0
49
25.4
74
0
49
-12.7
74
0
49
0
74
0
49
-12.7
74
0
0
LTYPE
5
41
330
5
100
AcDbSymbolTableRecord
100
AcDbLinetypeTableRecord
2
CENTER
70
0
3
Center ____ _ ____ _ ____ _ ____ _ ____ _ ____
72
65
73
4
40
50.8
49
31.75
74
0
49
-6.35
74
0
49
6.35
74
0
49
-6.35
74
0
0
LTYPE
5
42
330
5
100
AcDbSymbolTableRecord
100
AcDbLinetypeTableRecord
2
CENTER2
70
0
3
Center (.5x) ___ _ ___ _ ___ _ ___ _ ___ _ ___
72
65
73
4
40
28.575
49
19.05
74
0
49
-3.175
74
0
49
3.175
74
0
49
-3.175
74
0
0
LTYPE
5
43
330
5
100
AcDbSymbolTableRecord
100
AcDbLinetypeTableRecord
2
CENTERX2
70
0
3
Center (2x) ________  __  ________  __  _____
72
65
73
4
40
101.6
49
63.5
74
0
49
-12.7
74
0
49
12.7
74
0
49
-12.7
74
0
0
ENDTAB
0
TABLE
2
LAYER
5
2
330
0
100
AcDbSymbolTable
70
1
0
LAYER
5
10
330
2
100
AcDbSymbolTableRecord
100
AcDbLayerTableRecord
2
0
70
0
62
7
6
CONTINUOUS
370
0
390
F
0
LAYER
5
44
330
2
100
AcDbSymbolTableRecord
100
AcDbLayerTableRecord
2
Hilfslinien
70
1
62
3
6
CONTINUOUS
370
0
390
F
0
LAYER
5
45
330
2
100
AcDbSymbolTableRecord
100
AcDbLayerTableRecord
2
Rohre
70
0
62
7
6
CONTINUOUS
370
50
390
F
0
LAYER
5
46
330
2
100
AcDbSymbolTableRecord
100
AcDbLayerTableRecord
2
Symmetrielinien
70
0
62
7
6
DASHDOT
370
25
390
F
0
LAYER
5
47
330
2
100
AcDbSymbolTableRecord
100
AcDbLayerTableRecord
2
Zeichnung
70
0
62
7
6
CONTINUOUS
370
25
390
F
0
LAYER
5
48
330
2
100
AcDbSymbolTableRecord
100
AcDbLayerTableRecord
2
verdeckt
70
0
62
7
6
DASHED
370
25
390
F
0
ENDTAB
0
TABLE
2
STYLE
5
3
330
0
100
AcDbSymbolTable
70
3
0
STYLE
5
49
330
2
100
AcDbSymbolTableRecord
100
AcDbTextStyleTableRecord
2
Standard
70
0
40
0
41
1
50
0
71
0
42
1
3
txt
4

0
ENDTAB
0
TABLE
2
VIEW
5
6
330
0
100
AcDbSymbolTable
70
0
0
ENDTAB
0
TABLE
2
UCS
5
7
330
0
100
AcDbSymbolTable
70
0
0
ENDTAB
0
TABLE
2
APPID
5
9
330
0
100
AcDbSymbolTable
70
1
0
APPID
5
12
330
9
100
AcDbSymbolTableRecord
100
AcDbRegAppTableRecord
2
ACAD
70
0
0
ENDTAB
0
TABLE
2
DIMSTYLE
5
A
330
0
100
AcDbSymbolTable
70
1
100
AcDbDimStyleTable
71
1
0
DIMSTYLE
105
4A
330
A
100
AcDbSymbolTableRecord
100
AcDbDimStyleTableRecord
2
Standard
70
0
40
1
41
2
42
2
43
0.38
44
2
45
0
46
0
47
0
48
0
140
5
141
0.09
142
0
143
25.4
144
1
145
0
146
1
147
2
148
0
71
0
72
0
73
0
74
1
75
0
76
0
77
0
78
0
79
0
170
0
171
2
172
0
173
0
174
0
175
0
176
0
177
0
178
0
179
0
271
4
272
4
273
2
274
2
275
0
276
0
277
2
278
46
279
0
280
0
281
0
282
0
283
1
284
0
285
0
286
0
288
0
289
3
340
Standard
341

371
-2
372
-2
0
ENDTAB
0
TABLE
2
BLOCK_RECORD
5
1
330
0
100
AcDbSymbolTable
70
2
0
BLOCK_RECORD
5
1F
330
1
100
AcDbSymbolTableRecord
100
AcDbBlockTableRecord
2
*Model_Space
70
0
280
1
281
0
0
BLOCK_RECORD
5
1E
330
1
100
AcDbSymbolTableRecord
100
AcDbBlockTableRecord
2
*Paper_Space
70
0
280
1
281
0
0
BLOCK_RECORD
5
4B
330
1
100
AcDbSymbolTableRecord
100
AcDbBlockTableRecord
2
90_Bogen
70
0
280
1
281
0
0
BLOCK_RECORD
5
4E
330
1
100
AcDbSymbolTableRecord
100
AcDbBlockTableRecord
2
T_Stueck
70
0
280
1
281
0
0
BLOCK_RECORD
5
51
330
1
100
AcDbSymbolTableRecord
100
AcDbBlockTableRecord
2
T_Stueck_L
70
0
280
1
281
0
0
BLOCK_RECORD
5
54
330
1
100
AcDbSymbolTableRecord
100
AcDbBlockTableRecord
2
90_BogenL
70
0
280
1
281
0
0
ENDTAB
0
ENDSEC
0
SECTION
2
BLOCKS
0
BLOCK
5
20
330
1F
100
AcDbEntity
8
0
100
AcDbBlockBegin
2
*Model_Space
70
0
10
0
20
0
30
0
3
*Model_Space
1

0
ENDBLK
5
21
330
1F
100
AcDbEntity
8
0
100
AcDbBlockEnd
0
BLOCK
5
1C
330
1B
100
AcDbEntity
8
0
100
AcDbBlockBegin
2
*Paper_Space
70
0
10
0
20
0
30
0
3
*Paper_Space
1

0
ENDBLK
5
1D
330
1F
100
AcDbEntity
8
0
100
AcDbBlockEnd
0
BLOCK
5
4C
330
4B
100
AcDbEntity
8
0
100
AcDbBlockBegin
2
90_Bogen
70
0
10
0
20
0
3
90_Bogen
1

0
LINE
5
57
100
AcDbEntity
8
Zeichnung
6
ByLayer
62
256
370
-1
100
AcDbLine
10
-13.5
20
0
11
13.5
21
0
0
LINE
5
58
100
AcDbEntity
8
Zeichnung
6
ByLayer
62
256
370
-1
100
AcDbLine
10
-13.5
20
0
11
-13.5
21
-18.5
0
LINE
5
59
100
AcDbEntity
8
Zeichnung
6
ByLayer
62
256
370
-1
100
AcDbLine
10
10
20
-42
11
28.5
21
-42
0
LINE
5
5A
100
AcDbEntity
8
Zeichnung
6
ByLayer
62
256
370
-1
100
AcDbLine
10
28.5
20
-42
11
28.5
21
-15
0
LINE
5
5B
100
AcDbEntity
8
Zeichnung
6
ByLayer
62
256
370
-1
100
AcDbLine
10
28.5
20
-15
11
13.5
21
-15
0
LINE
5
5C
100
AcDbEntity
8
Zeichnung
6
ByLayer
62
256
370
-1
100
AcDbLine
10
13.5
20
-15
11
13.5
21
0
0
LINE
5
5D
100
AcDbEntity
8
verdeckt
6
ByLayer
62
256
370
-1
100
AcDbLine
10
-10
20
0
11
-9.96972708877
21
-17.4
0
LINE
5
5E
100
AcDbEntity
8
verdeckt
6
ByLayer
62
256
370
-1
100
AcDbLine
10
-9.96972708877
20
-17.4
11
10
21
-17.4
0
LINE
5
5F
100
AcDbEntity
8
verdeckt
6
ByLayer
62
256
370
-1
100
AcDbLine
10
10
20
-17.4
11
10
21
0
0
LINE
5
60
100
AcDbEntity
8
verdeckt
6
ByLayer
62
256
370
-1
100
AcDbLine
10
28.5
20
-18.5
11
11.1
21
-18.5
0
LINE
5
61
100
AcDbEntity
8
verdeckt
6
ByLayer
62
256
370
-1
100
AcDbLine
10
11.1
20
-18.5
11
11.1
21
-38.4697270888
0
LINE
5
62
100
AcDbEntity
8
verdeckt
6
ByLayer
62
256
370
-1
100
AcDbLine
10
11.1
20
-38.4697270888
11
28.5
21
-38.5
0
LINE
5
63
100
AcDbEntity
8
verdeckt
6
ByLayer
62
256
370
-1
100
AcDbLine
10
9.5
20
-17.4
11
9.5
21
-18.5
0
LINE
5
64
100
AcDbEntity
8
verdeckt
6
ByLayer
62
256
370
-1
100
AcDbLine
10
10
20
-19
11
11.1
21
-19
0
LINE
5
65
100
AcDbEntity
8
verdeckt
6
ByLayer
62
256
370
-1
100
AcDbLine
10
-9.5
20
-17.4
11
-9.5
21
-18.5
0
ARC
5
66
100
AcDbEntity
8
Zeichnung
6
ByLayer
62
256
370
-1
100
AcDbCircle
10
10
20
-18.5
40
23.5
100
AcDbArc
50
179.999997675
51
270
0
ARC
5
67
100
AcDbEntity
8
verdeckt
6
ByLayer
62
256
370
-1
100
AcDbCircle
10
10
20
-18.5
40
19.5
100
AcDbArc
50
180
51
270
0
LINE
5
68
100
AcDbEntity
8
Symmetrielinien
6
ByLayer
62
256
370
-1
100
AcDbLine
10
28.5
20
-28.5
11
10
21
-28.5
0
LINE
5
69
100
AcDbEntity
8
Symmetrielinien
6
ByLayer
62
256
370
-1
100
AcDbLine
10
0
20
0
11
0
21
-18.5
0
ARC
5
6A
100
AcDbEntity
8
Symmetrielinien
6
ByLayer
62
256
370
-1
100
AcDbCircle
10
10
20
-18.5
40
10
100
AcDbArc
50
180
51
270
0
ARC
5
6B
100
AcDbEntity
8
Symmetrielinien
6
ByLayer
62
256
370
-1
100
AcDbCircle
10
10
20
-18.5
40
0.5
100
AcDbArc
50
180
51
270
0
ENDBLK
5
4D
330
4B
100
AcDbEntity
8
0
100
AcDbBlockEnd
0
BLOCK
5
4F
330
4E
100
AcDbEntity
8
0
100
AcDbBlockBegin
2
T_Stueck
70
0
10
0
20
0
3
T_Stueck
1

0
LINE
5
6C
100
AcDbEntity
8
Zeichnung
6
ByLayer
62
256
370
-1
100
AcDbLine
10
-13.6
20
0
11
13.6
21
0
0
LINE
5
6D
100
AcDbEntity
8
Zeichnung
6
ByLayer
62
256
370
-1
100
AcDbLine
10
13.6
20
0
11
13.6
21
-13.4
0
LINE
5
6E
100
AcDbEntity
8
Zeichnung
6
ByLayer
62
256
370
-1
100
AcDbLine
10
13.6
20
-13.4
11
27.1
21
-13.4
0
LINE
5
6F
100
AcDbEntity
8
Zeichnung
6
ByLayer
62
256
370
-1
100
AcDbLine
10
27.1
20
-13.4
11
27.1
21
-40.6
0
LINE
5
70
100
AcDbEntity
8
Zeichnung
6
ByLayer
62
256
370
-1
100
AcDbLine
10
27.1
20
-40.6
11
13.6
21
-40.6
0
LINE
5
71
100
AcDbEntity
8
Zeichnung
6
ByLayer
62
256
370
-1
100
AcDbLine
10
13.6
20
-40.6
11
13.6
21
-54
0
LINE
5
72
100
AcDbEntity
8
Zeichnung
6
ByLayer
62
256
370
-1
100
AcDbLine
10
13.6
20
-54
11
-13.6
21
-54
0
LINE
5
73
100
AcDbEntity
8
Zeichnung
6
ByLayer
62
256
370
-1
100
AcDbLine
10
-13.6
20
-54
11
-13.6
21
0
0
LINE
5
74
100
AcDbEntity
8
Symmetrielinien
6
ByLayer
62
256
370
-1
100
AcDbLine
10
0
20
0
11
-3.5527136788e-15
21
-54
0
LINE
5
75
100
AcDbEntity
8
Symmetrielinien
6
ByLayer
62
256
370
-1
100
AcDbLine
10
27.1
20
-27
11
-1.7763568394e-15
21
-27
0
LINE
5
76
100
AcDbEntity
8
verdeckt
6
ByLayer
62
256
370
-1
100
AcDbLine
10
27.1
20
-37
11
11.1
21
-37
0
LINE
5
77
100
AcDbEntity
8
verdeckt
6
ByLayer
62
256
370
-1
100
AcDbLine
10
11.1
20
-37
11
11.1
21
-17
0
LINE
5
78
100
AcDbEntity
8
verdeckt
6
ByLayer
62
256
370
-1
100
AcDbLine
10
11.1
20
-17
11
27.1
21
-17
0
LINE
5
79
100
AcDbEntity
8
verdeckt
6
ByLayer
62
256
370
-1
100
AcDbLine
10
-10
20
0
11
-10
21
-16
0
LINE
5
7A
100
AcDbEntity
8
verdeckt
6
ByLayer
62
256
370
-1
100
AcDbLine
10
-10
20
-16
11
10
21
-16
0
LINE
5
7B
100
AcDbEntity
8
verdeckt
6
ByLayer
62
256
370
-1
100
AcDbLine
10
10
20
-16
11
10
21
0
0
LINE
5
7C
100
AcDbEntity
8
verdeckt
6
ByLayer
62
256
370
-1
100
AcDbLine
10
-10
20
-54
11
-10
21
-38
0
LINE
5
7D
100
AcDbEntity
8
verdeckt
6
ByLayer
62
256
370
-1
100
AcDbLine
10
-10
20
-38
11
10
21
-38
0
LINE
5
7E
100
AcDbEntity
8
verdeckt
6
ByLayer
62
256
370
-1
100
AcDbLine
10
10
20
-38
11
10
21
-54
0
LINE
5
7F
100
AcDbEntity
8
verdeckt
6
ByLayer
62
256
370
-1
100
AcDbLine
10
9.5
20
-38
11
9.5
21
-37
0
LINE
5
80
100
AcDbEntity
8
verdeckt
6
ByLayer
62
256
370
-1
100
AcDbLine
10
9.5
20
-37
11
10
21
-36.5
0
LINE
5
81
100
AcDbEntity
8
verdeckt
6
ByLayer
62
256
370
-1
100
AcDbLine
10
10
20
-36.5
11
11.1
21
-36.5
0
LINE
5
82
100
AcDbEntity
8
verdeckt
6
ByLayer
62
256
370
-1
100
AcDbLine
10
11.1
20
-17.5
11
10
21
-17.5
0
LINE
5
83
100
AcDbEntity
8
verdeckt
6
ByLayer
62
256
370
-1
100
AcDbLine
10
10
20
-17.5
11
9.5
21
-17
0
LINE
5
84
100
AcDbEntity
8
verdeckt
6
ByLayer
62
256
370
-1
100
AcDbLine
10
9.5
20
-17
11
9.5
21
-16
0
LINE
5
85
100
AcDbEntity
8
verdeckt
6
ByLayer
62
256
370
-1
100
AcDbLine
10
-9.5
20
-16
11
-9.5
21
-38
0
ENDBLK
5
50
330
4E
100
AcDbEntity
8
0
100
AcDbBlockEnd
0
BLOCK
5
52
330
51
100
AcDbEntity
8
0
100
AcDbBlockBegin
2
T_Stueck_L
70
0
10
0
20
0
3
T_Stueck_L
1

0
LINE
5
86
100
AcDbEntity
8
Zeichnung
6
ByLayer
62
256
370
-1
100
AcDbLine
10
-13.6
20
0
11
13.6
21
0
0
LINE
5
87
100
AcDbEntity
8
Zeichnung
6
ByLayer
62
256
370
-1
100
AcDbLine
10
13.6
20
0
11
13.6
21
-54
0
LINE
5
88
100
AcDbEntity
8
Zeichnung
6
ByLayer
62
256
370
-1
100
AcDbLine
10
13.6
20
-54
11
-13.6
21
-54
0
LINE
5
89
100
AcDbEntity
8
Zeichnung
6
ByLayer
62
256
370
-1
100
AcDbLine
10
-13.6
20
-54
11
-13.6
21
0
0
CIRCLE
5
8A
100
AcDbEntity
8
Zeichnung
6
ByLayer
62
256
370
-1
100
AcDbCircle
10
0
20
-27
40
13.6
0
CIRCLE
5
8B
100
AcDbEntity
8
Zeichnung
6
ByLayer
62
256
370
-1
100
AcDbCircle
10
0
20
-27
40
10
0
CIRCLE
5
8C
100
AcDbEntity
8
Zeichnung
6
ByLayer
62
256
370
-1
100
AcDbCircle
10
0
20
-27
40
9.5
0
LINE
5
8D
100
AcDbEntity
8
verdeckt
6
ByLayer
62
256
370
-1
100
AcDbLine
10
-10
20
0
11
-10
21
-16
0
LINE
5
8E
100
AcDbEntity
8
verdeckt
6
ByLayer
62
256
370
-1
100
AcDbLine
10
-10
20
-16
11
10
21
-16
0
LINE
5
8F
100
AcDbEntity
8
verdeckt
6
ByLayer
62
256
370
-1
100
AcDbLine
10
10
20
-16
11
10
21
0
0
LINE
5
90
100
AcDbEntity
8
verdeckt
6
ByLayer
62
256
370
-1
100
AcDbLine
10
-10
20
-54
11
-10
21
-38
0
LINE
5
91
100
AcDbEntity
8
verdeckt
6
ByLayer
62
256
370
-1
100
AcDbLine
10
-10
20
-38
11
10
21
-38
0
LINE
5
92
100
AcDbEntity
8
verdeckt
6
ByLayer
62
256
370
-1
100
AcDbLine
10
10
20
-38
11
10
21
-54
0
LINE
5
93
100
AcDbEntity
8
verdeckt
6
ByLayer
62
256
370
-1
100
AcDbLine
10
9.5
20
-16
11
9.5
21
-38
0
LINE
5
94
100
AcDbEntity
8
verdeckt
6
ByLayer
62
256
370
-1
100
AcDbLine
10
-9.5
20
-16
11
-9.5
21
-38
0
LINE
5
95
100
AcDbEntity
8
Symmetrielinien
6
ByLayer
62
256
370
-1
100
AcDbLine
10
0
20
0
11
0
21
-54
0
LINE
5
96
100
AcDbEntity
8
Symmetrielinien
6
ByLayer
62
256
370
-1
100
AcDbLine
10
-13.6
20
-27
11
13.6
21
-27
0
ENDBLK
5
53
330
51
100
AcDbEntity
8
0
100
AcDbBlockEnd
0
BLOCK
5
55
330
54
100
AcDbEntity
8
0
100
AcDbBlockBegin
2
90_BogenL
70
0
10
0
20
0
3
90_BogenL
1

0
LINE
5
97
100
AcDbEntity
8
Symmetrielinien
6
ByLayer
62
256
370
-1
100
AcDbLine
10
-9.5
20
4.76837158203e-07
11
9.5
21
-4.76837158203e-07
0
CIRCLE
5
98
100
AcDbEntity
8
Zeichnung
6
ByLayer
62
256
370
-1
100
AcDbCircle
10
0
20
4.76837158203e-07
40
10
0
CIRCLE
5
99
100
AcDbEntity
8
Zeichnung
6
ByLayer
62
256
370
-1
100
AcDbCircle
10
0
20
4.76837158203e-07
40
9.5
0
CIRCLE
5
9A
100
AcDbEntity
8
Zeichnung
6
ByLayer
62
256
370
-1
100
AcDbCircle
10
0
20
4.76837158203e-07
40
13.5
0
LINE
5
9B
100
AcDbEntity
8
Zeichnung
6
ByLayer
62
256
370
-1
100
AcDbLine
10
-13.5
20
4.76837158203e-07
11
-13.5
21
28.5000004768
0
LINE
5
9C
100
AcDbEntity
8
Zeichnung
6
ByLayer
62
256
370
-1
100
AcDbLine
10
-13.5
20
28.5000004768
11
13.5
21
28.5000004768
0
LINE
5
9D
100
AcDbEntity
8
Zeichnung
6
ByLayer
62
256
370
-1
100
AcDbLine
10
13.5
20
28.5000004768
11
13.5
21
4.76837158203e-07
0
LINE
5
9E
100
AcDbEntity
8
verdeckt
6
ByLayer
62
256
370
-1
100
AcDbLine
10
-10
20
28.5000004768
11
-10
21
11.1000004768
0
LINE
5
9F
100
AcDbEntity
8
verdeckt
6
ByLayer
62
256
370
-1
100
AcDbLine
10
-10
20
11.1000004768
11
10
21
11.1000004768
0
LINE
5
A0
100
AcDbEntity
8
verdeckt
6
ByLayer
62
256
370
-1
100
AcDbLine
10
10
20
11.1000004768
11
10
21
28.5000004768
0
LINE
5
A1
100
AcDbEntity
8
verdeckt
6
ByLayer
62
256
370
-1
100
AcDbLine
10
9.5
20
11.1000004768
11
9.5
21
4.76837158203e-07
0
LINE
5
A2
100
AcDbEntity
8
verdeckt
6
ByLayer
62
256
370
-1
100
AcDbLine
10
-9.5
20
11.1000004768
11
-9.5
21
4.76837158203e-07
0
LINE
5
A3
100
AcDbEntity
8
Symmetrielinien
6
ByLayer
62
256
370
-1
100
AcDbLine
10
0
20
28.5000004768
11
0
21
-13.4999995232
0
ENDBLK
5
56
330
54
100
AcDbEntity
8
0
100
AcDbBlockEnd
0
ENDSEC
0
SECTION
2
ENTITIES
0
LINE
5
A4
100
AcDbEntity
8
Hilfslinien
6
ByLayer
62
256
370
-1
100
AcDbLine
10
0
20
0
11
6.12323399574e-15
21
100
0
LINE
5
A5
100
AcDbEntity
8
Hilfslinien
6
ByLayer
62
256
370
-1
100
AcDbLine
10
13.6
20
-3.33103929368e-15
11
13.6
21
100
0
LINE
5
A6
100
AcDbEntity
8
Hilfslinien
6
ByLayer
62
256
370
-1
100
AcDbLine
10
27.2
20
-6.66207858736e-15
11
27.2
21
100
0
LINE
5
A7
100
AcDbEntity
8
Hilfslinien
6
ByLayer
62
256
370
-1
100
AcDbLine
10
3.6
20
-2.10639249453e-15
11
3.6
21
100
0
LINE
5
A8
100
AcDbEntity
8
Hilfslinien
6
ByLayer
62
256
370
-1
100
AcDbLine
10
23.6
20
-5.78033289198e-15
11
23.6
21
100
0
LINE
5
A9
100
AcDbEntity
8
Hilfslinien
6
ByLayer
62
256
370
-1
100
AcDbLine
10
40.7
20
-9.96862494506e-15
11
40.7
21
100
0
LINE
5
AA
100
AcDbEntity
8
Hilfslinien
6
ByLayer
62
256
370
-1
100
AcDbLine
10
24.7
20
-8.00919006642e-15
11
24.7
21
100
0
LINE
5
AB
100
AcDbEntity
8
Hilfslinien
6
ByLayer
62
256
370
-1
100
AcDbLine
10
0
20
-100
11
2.57175827821e-15
21
-58
0
LINE
5
AC
100
AcDbEntity
8
Hilfslinien
6
ByLayer
62
256
370
-1
100
AcDbLine
10
27
20
-100
11
27
21
-58
0
LINE
5
AD
100
AcDbEntity
8
Hilfslinien
6
ByLayer
62
256
370
-1
100
AcDbLine
10
13.5
20
-100
11
13.5
21
-58
0
LINE
5
AE
100
AcDbEntity
8
Hilfslinien
6
ByLayer
62
256
370
-1
100
AcDbLine
10
23.5
20
-100
11
23.5
21
-58
0
LINE
5
AF
100
AcDbEntity
8
Hilfslinien
6
ByLayer
62
256
370
-1
100
AcDbLine
10
3.5
20
-100
11
3.5
21
-58
0
LINE
5
B0
100
AcDbEntity
8
Hilfslinien
6
ByLayer
62
256
370
-1
100
AcDbLine
10
24.6
20
-100
11
24.6
21
-73
0
LINE
5
B1
100
AcDbEntity
8
Hilfslinien
6
ByLayer
62
256
370
-1
100
AcDbLine
10
4
20
-100
11
4
21
-58
0
LINE
5
B2
100
AcDbEntity
8
Hilfslinien
6
ByLayer
62
256
370
-1
100
AcDbLine
10
23
20
-100
11
23
21
-58
0
INSERT
5
B3
100
AcDbEntity
8
Symmetrielinien
6
ByLayer
62
256
370
-1
100
AcDbBlockReference
2
90_Bogen
10
13.5
20
-58
30
0
41
1
42
1
43
0
50
0
70
1
71
1
44
0
45
0
0
LINE
5
B4
100
AcDbEntity
8
Hilfslinien
6
ByLayer
62
256
370
-1
100
AcDbLine
10
4.1
20
-2.16762483449e-15
11
4.1
21
100
0
LINE
5
B5
100
AcDbEntity
8
Hilfslinien
6
ByLayer
62
256
370
-1
100
AcDbLine
10
23.1
20
54
11
23.1
21
-2.32682891838e-15
0
INSERT
5
B6
100
AcDbEntity
8
verdeckt
6
ByLayer
62
256
370
-1
100
AcDbBlockReference
2
T_Stueck
10
13.6
20
54
30
0
41
1
42
1
43
0
50
0
70
1
71
1
44
0
45
0
0
LINE
5
B7
100
AcDbEntity
8
Hilfslinien
6
ByLayer
62
256
370
-1
100
AcDbLine
10
-50
20
-86.5
11
42
21
-86.5
0
LINE
5
B8
100
AcDbEntity
8
Hilfslinien
6
ByLayer
62
256
370
-1
100
AcDbLine
10
-50
20
-77
11
42
21
-77
0
LINE
5
B9
100
AcDbEntity
8
Hilfslinien
6
ByLayer
62
256
370
-1
100
AcDbLine
10
-50
20
-76.5
11
42
21
-76.5
0
LINE
5
BA
100
AcDbEntity
8
Hilfslinien
6
ByLayer
62
256
370
-1
100
AcDbLine
10
-50
20
-96
11
42
21
-96
0
LINE
5
BB
100
AcDbEntity
8
Hilfslinien
6
ByLayer
62
256
370
-1
100
AcDbLine
10
-50
20
-96.5
11
42
21
-96.5
0
LINE
5
BC
100
AcDbEntity
8
Hilfslinien
6
ByLayer
62
256
370
-1
100
AcDbLine
10
-50
20
-100
11
42
21
-100
0
LINE
5
BD
100
AcDbEntity
8
Hilfslinien
6
ByLayer
62
256
370
-1
100
AcDbLine
10
-50
20
-73
11
42
21
-73
0
LINE
5
BE
100
AcDbEntity
8
Hilfslinien
6
ByLayer
62
256
370
-1
100
AcDbLine
10
-50
20
-75.4
11
27
21
-75.4
0
LINE
5
BF
100
AcDbEntity
8
Hilfslinien
6
ByLayer
62
256
370
-1
100
AcDbLine
10
-36.5
20
-100
11
-36.5
21
-58
0
LINE
5
C0
100
AcDbEntity
8
Hilfslinien
6
ByLayer
62
256
370
-1
100
AcDbLine
10
-54
20
-58
11
-19
21
-58
0
LINE
5
C1
100
AcDbEntity
8
Hilfslinien
6
ByLayer
62
256
370
-1
100
AcDbLine
10
-23
20
-86.5
11
-23
21
-51.5
0
LINE
5
C2
100
AcDbEntity
8
Hilfslinien
6
ByLayer
62
256
370
-1
100
AcDbLine
10
-50
20
-86.5
11
-50
21
-51.5
0
LINE
5
C3
100
AcDbEntity
8
Hilfslinien
6
ByLayer
62
256
370
-1
100
AcDbLine
10
-26.5
20
-86.5
11
-26.5
21
-51.5
0
LINE
5
C4
100
AcDbEntity
8
Hilfslinien
6
ByLayer
62
256
370
-1
100
AcDbLine
10
-27
20
-86.5
11
-27
21
-51.5
0
LINE
5
C5
100
AcDbEntity
8
Hilfslinien
6
ByLayer
62
256
370
-1
100
AcDbLine
10
-46
20
-86.5
11
-46
21
-51.5
0
LINE
5
C6
100
AcDbEntity
8
Hilfslinien
6
ByLayer
62
256
370
-1
100
AcDbLine
10
-46.5
20
-86.5
11
-46.5
21
-51.5
0
LINE
5
C7
100
AcDbEntity
8
Hilfslinien
6
ByLayer
62
256
370
-1
100
AcDbLine
10
-36.4
20
2.79219470206e-15
11
-36.4
21
100
0
LINE
5
C8
100
AcDbEntity
8
Hilfslinien
6
ByLayer
62
256
370
-1
100
AcDbLine
10
-26.9
20
4.65365783677e-16
11
-26.9
21
100
0
LINE
5
C9
100
AcDbEntity
8
Hilfslinien
6
ByLayer
62
256
370
-1
100
AcDbLine
10
-45.9
20
3.95560916125e-15
11
-45.9
21
100
0
LINE
5
CA
100
AcDbEntity
8
Hilfslinien
6
ByLayer
62
256
370
-1
100
AcDbLine
10
-26.4
20
3.42901103762e-16
11
-26.4
21
100
0
LINE
5
CB
100
AcDbEntity
8
Hilfslinien
6
ByLayer
62
256
370
-1
100
AcDbLine
10
-46.4
20
4.0168415012e-15
11
-46.4
21
100
0
LINE
5
CC
100
AcDbEntity
8
Hilfslinien
6
ByLayer
62
256
370
-1
100
AcDbLine
10
-22.8
20
-5.38844591624e-16
11
-22.8
21
100
0
LINE
5
CD
100
AcDbEntity
8
Hilfslinien
6
ByLayer
62
256
370
-1
100
AcDbLine
10
-50
20
4.4577143489e-15
11
-50
21
100
0
LINE
5
CE
100
AcDbEntity
8
Hilfslinien
6
ByLayer
62
256
370
-1
100
AcDbLine
10
-100
20
0
11
100
21
0
0
LINE
5
CF
100
AcDbEntity
8
Hilfslinien
6
ByLayer
62
256
370
-1
100
AcDbLine
10
-100
20
54
11
100
21
54
0
LINE
5
D0
100
AcDbEntity
8
Hilfslinien
6
ByLayer
62
256
370
-1
100
AcDbLine
10
-50
20
40.6
11
100
21
40.6
0
LINE
5
D1
100
AcDbEntity
8
Hilfslinien
6
ByLayer
62
256
370
-1
100
AcDbLine
10
-50
20
38
11
100
21
38
0
LINE
5
D2
100
AcDbEntity
8
Hilfslinien
6
ByLayer
62
256
370
-1
100
AcDbLine
10
-50
20
37
11
100
21
37
0
LINE
5
D3
100
AcDbEntity
8
Hilfslinien
6
ByLayer
62
256
370
-1
100
AcDbLine
10
-50
20
36.5
11
100
21
36.5
0
LINE
5
D4
100
AcDbEntity
8
Hilfslinien
6
ByLayer
62
256
370
-1
100
AcDbLine
10
-50
20
27
11
100
21
27
0
LINE
5
D5
100
AcDbEntity
8
Hilfslinien
6
ByLayer
62
256
370
-1
100
AcDbLine
10
-50
20
17.5
11
100
21
17.5
0
LINE
5
D6
100
AcDbEntity
8
Hilfslinien
6
ByLayer
62
256
370
-1
100
AcDbLine
10
-50
20
17
11
100
21
17
0
LINE
5
D7
100
AcDbEntity
8
Hilfslinien
6
ByLayer
62
256
370
-1
100
AcDbLine
10
-50
20
16
11
100
21
16
0
LINE
5
D8
100
AcDbEntity
8
Hilfslinien
6
ByLayer
62
256
370
-1
100
AcDbLine
10
-50
20
13.4
11
100
21
13.4
0
INSERT
5
D9
100
AcDbEntity
8
Symmetrielinien
6
ByLayer
62
256
370
-1
100
AcDbBlockReference
2
T_Stueck_L
10
-36.4
20
54
30
0
41
1
42
1
43
0
50
0
70
1
71
1
44
0
45
0
0
LINE
5
DA
100
AcDbEntity
8
Hilfslinien
6
ByLayer
62
256
370
-1
100
AcDbLine
10
300
20
-100
11
300
21
150
0
LINE
5
DB
100
AcDbEntity
8
Hilfslinien
6
ByLayer
62
256
370
-1
100
AcDbLine
10
420
20
-100
11
420
21
150
0
LINE
5
DC
100
AcDbEntity
8
Hilfslinien
6
ByLayer
62
256
370
-1
100
AcDbLine
10
270
20
-80
11
470
21
-80
0
LINE
5
DD
100
AcDbEntity
8
Hilfslinien
6
ByLayer
62
256
370
-1
100
AcDbLine
10
270
20
90
11
470
21
90
0
INSERT
5
DE
100
AcDbEntity
8
Symmetrielinien
6
ByLayer
62
256
370
-1
100
AcDbBlockReference
2
90_BogenL
10
-36.5
20
-86.5000004768
30
0
41
1
42
1
43
0
50
0
70
1
71
1
44
0
45
0
0
INSERT
5
DF
100
AcDbEntity
8
Symmetrielinien
6
ByLayer
62
256
370
-1
100
AcDbBlockReference
2
90_BogenL
10
300
20
-80
30
0
41
1
42
1
43
0
50
0
70
1
71
1
44
1
45
1
0
INSERT
5
E0
100
AcDbEntity
8
Symmetrielinien
6
ByLayer
62
256
370
-1
100
AcDbBlockReference
2
90_BogenL
10
420
20
-80
30
0
41
1
42
1
43
0
50
0
70
1
71
1
44
1
45
1
0
INSERT
5
E1
100
AcDbEntity
8
Symmetrielinien
6
ByLayer
62
256
370
-1
100
AcDbBlockReference
2
90_BogenL
10
300
20
90
30
0
41
1
42
1
43
0
50
180
70
1
71
1
44
1
45
1
0
INSERT
5
E2
100
AcDbEntity
8
Symmetrielinien
6
ByLayer
62
256
370
-1
100
AcDbBlockReference
2
90_BogenL
10
420
20
90
30
0
41
1
42
1
43
0
50
180
70
1
71
1
44
1
45
1
0
LINE
5
E3
100
AcDbEntity
8
Hilfslinien
6
ByLayer
62
256
370
-1
100
AcDbLine
10
270
20
5
11
470
21
5
0
LINE
5
E4
100
AcDbEntity
8
Hilfslinien
6
ByLayer
62
256
370
-1
100
AcDbLine
10
360
20
-100
11
360
21
150
0
LINE
5
E5
100
AcDbEntity
8
Rohre
6
ByLayer
62
256
370
-1
100
AcDbLine
10
310
20
78.8999995232
11
310
21
16
0
LINE
5
E6
100
AcDbEntity
8
Rohre
6
ByLayer
62
256
370
-1
100
AcDbLine
10
290
20
16
11
290
21
78.8999995232
0
LINE
5
E7
100
AcDbEntity
8
Rohre
6
ByLayer
62
256
370
-1
100
AcDbLine
10
290
20
-6
11
290
21
-68.8999995232
0
LINE
5
E8
100
AcDbEntity
8
Rohre
6
ByLayer
62
256
370
-1
100
AcDbLine
10
310
20
-68.8999995232
11
310
21
-6
0
LINE
5
E9
100
AcDbEntity
8
Rohre
6
ByLayer
62
256
370
-1
100
AcDbLine
10
410
20
-68.8999995232
11
410
21
-6
0
LINE
5
EA
100
AcDbEntity
8
Rohre
6
ByLayer
62
256
370
-1
100
AcDbLine
10
430
20
-6
11
430
21
-68.8999995232
0
LINE
5
EB
100
AcDbEntity
8
Rohre
6
ByLayer
62
256
370
-1
100
AcDbLine
10
408.9
20
-5
11
371
21
-5
0
LINE
5
EC
100
AcDbEntity
8
Rohre
6
ByLayer
62
256
370
-1
100
AcDbLine
10
371
20
15
11
408.9
21
15
0
LINE
5
ED
100
AcDbEntity
8
Rohre
6
ByLayer
62
256
370
-1
100
AcDbLine
10
349
20
15
11
311.1
21
15
0
LINE
5
EE
100
AcDbEntity
8
Rohre
6
ByLayer
62
256
370
-1
100
AcDbLine
10
311.1
20
-5
11
349
21
-5
0
LINE
5
EF
100
AcDbEntity
8
Rohre
6
ByLayer
62
256
370
-1
100
AcDbLine
10
410
20
78.8999995232
11
410
21
16
0
LINE
5
F0
100
AcDbEntity
8
Rohre
6
ByLayer
62
256
370
-1
100
AcDbLine
10
430
20
16
11
430
21
78.8999995232
0
LINE
5
F1
100
AcDbEntity
8
Rohre
6
ByLayer
62
256
370
-1
100
AcDbLine
10
350
20
16.1
11
350
21
266.1
0
LINE
5
F2
100
AcDbEntity
8
Rohre
6
ByLayer
62
256
370
-1
100
AcDbLine
10
370
20
16.1
11
370
21
266.1
0
INSERT
5
F3
100
AcDbEntity
8
Zeichnung
6
ByLayer
62
256
370
-1
100
AcDbBlockReference
2
T_Stueck
10
420
20
-22
30
0
41
1
42
1
43
0
50
180
70
1
71
1
44
1
45
1
0
INSERT
5
F4
100
AcDbEntity
8
Zeichnung
6
ByLayer
62
256
370
-1
100
AcDbBlockReference
2
T_Stueck
10
300
20
32
30
0
41
1
42
1
43
0
50
0
70
1
71
1
44
1
45
1
0
INSERT
5
F5
100
AcDbEntity
8
Zeichnung
6
ByLayer
62
256
370
-1
100
AcDbBlockReference
2
T_Stueck
10
333
20
5
30
0
41
1
42
1
43
0
50
90
70
1
71
1
44
1
45
1
0
ENDSEC
0
SECTION
2
OBJECTS
0
DICTIONARY
5
C
330
0
100
AcDbDictionary
281
1
3
ACAD_GROUP
350
D
0
DICTIONARY
5
D
330
C
100
AcDbDictionary
281
1
0
ENDSEC
0
EOF
